# Blender v2.78 (sub 0) OBJ File: 'Bishop.blend'
# www.blender.org
mtllib Bishop.mtl
o Black_Bishop_Cylinder.010
v -1.622327 0.000001 1.622327
v -2.294317 0.000001 -0.000000
v -1.622326 0.000001 -1.622327
v -0.759815 2.600001 -0.759816
v -1.595503 1.426443 1.595503
v -2.256382 1.426443 -0.000000
v -1.595502 1.426443 -1.595503
v -1.166751 2.109664 1.166751
v -1.650035 2.109664 -0.000000
v -1.166750 2.109664 -1.166751
v -1.620154 0.981571 1.620154
v -2.291244 0.981571 -0.000000
v -1.620153 0.981571 -1.620154
v -1.608193 0.730949 1.608193
v -2.274328 0.730949 -0.000000
v -1.608191 0.730949 -1.608193
v -1.654818 0.345083 1.654818
v -2.340266 0.345083 -0.000000
v -1.654817 0.345083 -1.654818
v -1.070494 2.369327 1.070494
v -1.513906 2.369327 -0.000000
v -1.070493 2.369327 -1.070494
v -1.536940 1.162896 1.536939
v -2.173560 1.162896 -0.000000
v -1.536938 1.162896 -1.536940
v -0.759816 2.600001 0.759816
v -1.074542 2.600001 -0.000000
v -0.661167 5.764989 0.661167
v -0.935031 5.764989 -0.000000
v -0.661166 5.764989 -0.661167
v -0.657252 6.262376 -0.657253
v -0.929496 6.262376 -0.000000
v -0.657253 6.262376 0.657253
v -1.071968 5.764989 1.071968
v -1.515991 5.764989 -0.000000
v -1.071967 5.764989 -1.071968
v -0.768130 6.007826 0.768130
v -1.086299 6.007826 -0.000000
v -0.768129 6.007826 -0.768130
v -1.071968 6.007826 1.071968
v -1.515991 6.007826 -0.000000
v -1.071967 6.007826 -1.071968
v -0.768130 6.262376 0.768130
v -1.086299 6.262376 -0.000000
v -0.768129 6.262376 -0.768130
v -0.657252 6.496915 -0.657253
v -0.929496 6.496915 -0.000000
v -0.657253 6.496915 0.657253
v -0.757099 6.496915 -0.757100
v -1.070701 6.496915 -0.000000
v -0.757100 6.496915 0.757100
v -0.757099 6.772050 -0.757100
v -1.070701 6.772050 -0.000000
v -0.757100 6.772050 0.757100
v -0.657092 6.772050 -0.657092
v -0.929269 6.772050 -0.000000
v -0.657092 6.772050 0.657092
v -0.224386 8.629416 -0.224387
v -0.317331 8.629416 0.000000
v -0.224387 8.629416 0.224387
v -1.099648 7.166313 -0.000000
v -0.884529 8.135468 -0.000000
v -1.157822 7.497464 -0.000000
v -1.079083 7.852199 -0.000000
v -0.625457 8.135468 0.625457
v -0.777569 7.166313 0.777569
v -0.763027 7.852199 0.763027
v -0.818704 7.497464 0.818704
v -0.625456 8.135468 -0.625456
v -0.777568 7.166313 -0.777569
v -0.763027 7.852199 -0.763027
v -0.818703 7.497464 -0.818704
v -0.224387 8.789385 0.224387
v -0.317331 8.789385 0.000000
v -0.224386 8.789385 -0.224387
v 0.000000 0.000001 2.294316
v 0.000000 2.600001 1.074542
v 1.622327 0.000001 1.622327
v 2.294317 0.000001 -0.000000
v 1.622326 0.000001 -1.622327
v 0.759815 2.600001 -0.759816
v 0.000000 0.000001 -2.294315
v 0.000000 1.426443 2.256382
v 1.595503 1.426443 1.595503
v 2.256382 1.426443 -0.000000
v 1.595502 1.426443 -1.595503
v 0.000000 1.426443 -2.256381
v 0.000000 2.109664 1.650035
v 1.166751 2.109664 1.166751
v 1.650035 2.109664 -0.000000
v 1.166750 2.109664 -1.166751
v 0.000000 2.109664 -1.650034
v 0.000000 0.981571 2.291244
v 1.620154 0.981571 1.620154
v 2.291244 0.981571 -0.000000
v 1.620153 0.981571 -1.620154
v 0.000000 0.981571 -2.291243
v 0.000000 0.730949 2.274328
v 1.608193 0.730949 1.608193
v 2.274328 0.730949 -0.000000
v 1.608191 0.730949 -1.608193
v 0.000000 0.730949 -2.274327
v 0.000000 0.345083 2.340266
v 1.654818 0.345083 1.654818
v 2.340266 0.345083 -0.000000
v 1.654817 0.345083 -1.654818
v 0.000000 0.345083 -2.340264
v 0.000000 2.369327 1.513906
v 1.070494 2.369327 1.070494
v 1.513906 2.369327 -0.000000
v 1.070493 2.369327 -1.070494
v 0.000000 2.369327 -1.513906
v 0.000000 1.162896 2.173560
v 1.536940 1.162896 1.536939
v 2.173560 1.162896 -0.000000
v 1.536938 1.162896 -1.536940
v 0.000000 1.162896 -2.173559
v 0.000000 0.000001 0.000000
v 0.759816 2.600001 0.759816
v 1.074542 2.600001 -0.000000
v 0.000000 2.600001 -1.074541
v 0.000000 5.764989 0.935031
v 0.661167 5.764989 0.661167
v 0.935031 5.764989 -0.000000
v 0.661166 5.764989 -0.661167
v 0.000000 5.764989 -0.935030
v 0.000000 6.262376 -0.929495
v 0.657252 6.262376 -0.657253
v 0.929496 6.262376 -0.000000
v 0.657253 6.262376 0.657253
v 0.000000 6.262376 0.929496
v 0.000000 5.764989 1.515991
v 1.071968 5.764989 1.071968
v 1.515991 5.764989 -0.000000
v 1.071967 5.764989 -1.071968
v 0.000000 5.764989 -1.515990
v 0.000000 6.007826 1.086300
v 0.768130 6.007826 0.768130
v 1.086299 6.007826 -0.000000
v 0.768129 6.007826 -0.768130
v 0.000000 6.007826 -1.086299
v 0.000000 6.007826 1.515991
v 1.071968 6.007826 1.071968
v 1.515991 6.007826 -0.000000
v 1.071967 6.007826 -1.071968
v 0.000000 6.007826 -1.515990
v 0.000000 6.262376 1.086300
v 0.768130 6.262376 0.768130
v 1.086299 6.262376 -0.000000
v 0.768129 6.262376 -0.768130
v 0.000000 6.262376 -1.086299
v 0.000000 6.496915 -0.929495
v 0.657252 6.496915 -0.657253
v 0.929496 6.496915 -0.000000
v 0.657253 6.496915 0.657253
v 0.000000 6.496915 0.929496
v 0.000000 6.496915 -1.070700
v 0.757099 6.496915 -0.757100
v 1.070701 6.496915 -0.000000
v 0.757100 6.496915 0.757100
v 0.000000 6.496915 1.070701
v 0.000000 6.772050 -1.070700
v 0.757099 6.772050 -0.757100
v 1.070701 6.772050 -0.000000
v 0.757100 6.772050 0.757100
v 0.000000 6.772050 1.070701
v 0.000000 6.772050 -0.929268
v 0.657092 6.772050 -0.657092
v 0.929269 6.772050 -0.000000
v 0.657092 6.772050 0.657092
v 0.000000 6.772050 0.929269
v 0.000000 8.629416 -0.317330
v 0.224386 8.629416 -0.224387
v 0.317331 8.629416 0.000000
v 0.224387 8.629416 0.224387
v 0.000000 8.629416 0.317331
v 0.000000 8.949355 0.000000
v 0.000000 7.166313 1.099648
v 0.000000 8.135468 0.884529
v 0.000000 7.497464 1.157822
v 0.000000 7.852199 1.079083
v 1.099648 7.166313 -0.000000
v 0.884529 8.135468 -0.000000
v 1.157822 7.497464 -0.000000
v 1.079083 7.852199 -0.000000
v 0.625457 8.135468 0.625457
v 0.777569 7.166313 0.777569
v 0.763027 7.852199 0.763027
v 0.818704 7.497464 0.818704
v 0.000000 7.166313 -1.099647
v 0.000000 8.135468 -0.884528
v 0.000000 7.497464 -1.157822
v 0.000000 7.852199 -1.079082
v 0.625456 8.135468 -0.625456
v 0.777568 7.166313 -0.777569
v 0.763027 7.852199 -0.763027
v 0.818703 7.497464 -0.818704
v 0.224387 8.789385 0.224387
v 0.000000 8.789385 -0.317330
v 0.317331 8.789385 0.000000
v 0.224386 8.789385 -0.224387
v 0.000000 8.789385 0.317331
vt 0.2014 0.0866
vt 0.2238 0.1084
vt 0.1561 0.2086
vt 0.1297 0.1978
vt 0.1365 0.3160
vt 0.1087 0.3161
vt 0.1580 0.4216
vt 0.1314 0.4324
vt 0.2227 0.5176
vt 0.1995 0.5389
vt 0.3869 0.0142
vt 0.3602 0.1845
vt 0.3353 0.1821
vt 0.3601 0.0108
vt 0.3517 0.3489
vt 0.3273 0.3491
vt 0.3595 0.5126
vt 0.3359 0.5151
vt 0.3856 0.6820
vt 0.3613 0.6850
vt 0.0201 0.1606
vt 0.0923 0.0002
vt 0.1229 0.0105
vt 0.0475 0.1683
vt 0.0002 0.3196
vt 0.0267 0.3180
vt 0.0335 0.4691
vt 0.0571 0.4602
vt 0.1079 0.6139
vt 0.1332 0.6044
vt 0.2852 0.0002
vt 0.3201 0.0028
vt 0.2970 0.1785
vt 0.2631 0.1755
vt 0.2899 0.3492
vt 0.2556 0.3492
vt 0.2990 0.5188
vt 0.2646 0.5220
vt 0.3240 0.6931
vt 0.2882 0.6963
vt 0.3806 0.5104
vt 0.4071 0.6739
vt 0.3727 0.3490
vt 0.3807 0.1866
vt 0.4071 0.0220
vt 0.4075 0.5477
vt 0.4734 0.3887
vt 0.6323 0.5477
vt 0.4734 0.7067
vt 0.6323 0.3228
vt 0.6323 0.7725
vt 0.4075 0.1613
vt 0.4089 0.0807
vt 0.7192 0.0912
vt 0.7180 0.1613
vt 0.0260 0.7767
vt 0.0308 0.6985
vt 0.0447 0.7007
vt 0.0411 0.7771
vt 0.0473 0.9359
vt 0.0305 0.8550
vt 0.0463 0.8533
vt 0.0618 0.9260
vt 0.0482 0.6203
vt 0.0595 0.6283
vt 0.9342 0.6063
vt 0.9548 0.6075
vt 0.9573 0.7199
vt 0.9285 0.7205
vt 0.9367 0.5211
vt 0.9565 0.5219
vt 0.9347 0.4365
vt 0.9552 0.4361
vt 0.8757 0.6040
vt 0.8602 0.6886
vt 0.9218 0.3259
vt 0.9502 0.3228
vt 0.8823 0.5230
vt 0.9998 0.6978
vt 0.9918 0.6055
vt 0.9948 0.5208
vt 0.9962 0.4342
vt 0.9998 0.3405
vt 0.8834 0.4439
vt 0.8666 0.3634
vt 0.0221 0.9409
vt 0.0060 0.8588
vt 0.0002 0.7775
vt 0.0049 0.6958
vt 0.0209 0.6143
vt 0.0643 0.7779
vt 0.0705 0.8509
vt 0.0689 0.7046
vt 0.0816 0.9222
vt 0.0798 0.6315
vt 0.0771 0.7782
vt 0.0825 0.8498
vt 0.0825 0.7066
vt 0.0935 0.9254
vt 0.0953 0.6277
vt 0.1259 0.6345
vt 0.1075 0.7089
vt 0.1028 0.7767
vt 0.1072 0.8452
vt 0.1242 0.9210
vt 0.1194 0.7109
vt 0.1152 0.7769
vt 0.1200 0.8435
vt 0.1370 0.9121
vt 0.1370 0.6429
vt 0.2039 0.4028
vt 0.2552 0.4736
vt 0.1859 0.3166
vt 0.2016 0.2286
vt 0.2552 0.1540
vt 0.4089 0.2419
vt 0.7192 0.2314
vt 0.4129 0.0002
vt 0.7227 0.0211
vt 0.4129 0.3224
vt 0.7227 0.3015
vt 0.6328 0.4878
vt 0.6377 0.4071
vt 0.6834 0.4128
vt 0.6760 0.4891
vt 0.6404 0.6407
vt 0.6368 0.5651
vt 0.6789 0.5634
vt 0.6858 0.6455
vt 0.1520 0.6797
vt 0.1534 0.6606
vt 0.1856 0.6715
vt 0.6485 0.3228
vt 0.7008 0.3236
vt 0.7618 0.4910
vt 0.7729 0.4343
vt 0.8428 0.4683
vt 0.8380 0.4953
vt 0.7957 0.6135
vt 0.7679 0.5486
vt 0.8437 0.5221
vt 0.8597 0.5454
vt 0.8075 0.3750
vt 0.8597 0.4455
vt 0.7386 0.5553
vt 0.7339 0.4900
vt 0.7083 0.5604
vt 0.7048 0.4896
vt 0.7447 0.4249
vt 0.7778 0.3500
vt 0.7141 0.4179
vt 0.7399 0.3314
vt 0.7613 0.6333
vt 0.7221 0.6443
vt 0.1641 0.6437
vt 0.1602 0.7011
vt 0.1856 0.6308
vt 0.1509 0.6328
vt 0.1740 0.6143
vt 0.1446 0.7058
vt 0.1374 0.6822
vt 0.1382 0.6568
vt 0.1297 0.1978
vt 0.1561 0.2086
vt 0.1087 0.3161
vt 0.1365 0.3160
vt 0.1314 0.4324
vt 0.1580 0.4216
vt 0.3353 0.1821
vt 0.3602 0.1845
vt 0.3273 0.3491
vt 0.3517 0.3489
vt 0.3359 0.5151
vt 0.3595 0.5126
vt 0.0201 0.1606
vt 0.0475 0.1683
vt 0.0002 0.3196
vt 0.0267 0.3180
vt 0.0335 0.4691
vt 0.0571 0.4602
vt 0.2631 0.1755
vt 0.2970 0.1785
vt 0.2556 0.3492
vt 0.2899 0.3492
vt 0.2646 0.5220
vt 0.2990 0.5188
vt 0.3806 0.5104
vt 0.3727 0.3490
vt 0.3807 0.1866
vt 0.4075 0.5477
vt 0.4734 0.3887
vt 0.4734 0.7067
vt 0.4075 0.1613
vt 0.7180 0.1613
vt 0.7192 0.0912
vt 0.4089 0.0807
vt 0.0260 0.7767
vt 0.0411 0.7771
vt 0.0447 0.7007
vt 0.0308 0.6985
vt 0.0463 0.8533
vt 0.0305 0.8550
vt 0.9342 0.6063
vt 0.9548 0.6075
vt 0.9367 0.5211
vt 0.9565 0.5219
vt 0.9347 0.4365
vt 0.9552 0.4361
vt 0.8757 0.6040
vt 0.8823 0.5230
vt 0.9918 0.6055
vt 0.9948 0.5208
vt 0.9962 0.4342
vt 0.8834 0.4439
vt 0.0060 0.8588
vt 0.0002 0.7775
vt 0.0049 0.6958
vt 0.0705 0.8509
vt 0.0643 0.7779
vt 0.0689 0.7046
vt 0.0825 0.8498
vt 0.0771 0.7782
vt 0.0825 0.7066
vt 0.1075 0.7089
vt 0.1072 0.8452
vt 0.1028 0.7767
vt 0.1152 0.7769
vt 0.1194 0.7109
vt 0.1200 0.8435
vt 0.2039 0.4028
vt 0.1859 0.3166
vt 0.2016 0.2286
vt 0.4089 0.2419
vt 0.7192 0.2314
vt 0.6328 0.4878
vt 0.6760 0.4891
vt 0.6834 0.4128
vt 0.6377 0.4071
vt 0.6789 0.5634
vt 0.6368 0.5651
vt 0.1520 0.6797
vt 0.1534 0.6606
vt 0.7618 0.4910
vt 0.8380 0.4953
vt 0.8428 0.4683
vt 0.7729 0.4343
vt 0.8437 0.5221
vt 0.7679 0.5486
vt 0.7339 0.4900
vt 0.7386 0.5553
vt 0.7048 0.4896
vt 0.7083 0.5604
vt 0.7447 0.4249
vt 0.7141 0.4179
vt 0.1641 0.6437
vt 0.1509 0.6328
vt 0.1374 0.6822
vt 0.1382 0.6568
vn -0.3444 0.4359 0.8315
vn -0.8315 0.4359 0.3444
vn -0.8315 0.4359 -0.3444
vn -0.3444 0.4359 -0.8315
vn -0.3819 -0.0622 0.9221
vn -0.9221 -0.0622 0.3819
vn -0.9221 -0.0622 -0.3819
vn -0.3819 -0.0622 -0.9221
vn -0.3675 -0.2788 0.8872
vn -0.8872 -0.2788 0.3675
vn -0.8872 -0.2788 -0.3675
vn -0.3675 -0.2788 -0.8872
vn -0.2959 0.6340 0.7144
vn -0.7144 0.6340 0.2959
vn -0.7144 0.6340 -0.2959
vn -0.2959 0.6340 -0.7144
vn -0.3798 -0.1221 0.9170
vn -0.3780 0.1559 0.9126
vn -0.9170 -0.1221 0.3798
vn -0.9126 0.1559 0.3780
vn -0.9170 -0.1221 -0.3798
vn -0.9126 0.1559 -0.3780
vn -0.3798 -0.1221 -0.9170
vn -0.3780 0.1559 -0.9126
vn -0.3282 0.5143 -0.7924
vn -0.7924 0.5143 -0.3282
vn -0.7924 0.5143 0.3282
vn -0.3282 0.5143 0.7924
vn 0.0000 -1.0000 0.0000
vn -0.9231 0.0407 0.3824
vn 0.0000 1.0000 0.0000
vn -0.3827 0.0000 -0.9239
vn -0.9239 0.0000 -0.3827
vn -0.9239 0.0000 0.3827
vn -0.3827 0.0000 0.9239
vn -0.1891 0.8694 -0.4565
vn -0.4565 0.8694 -0.1891
vn -0.4565 0.8694 0.1891
vn -0.1891 0.8694 0.4565
vn -0.9231 0.0407 -0.3824
vn -0.3824 0.0407 0.9231
vn -0.3824 0.0407 -0.9231
vn -0.8580 -0.3708 0.3554
vn -0.3554 -0.3708 -0.8580
vn -0.4425 0.8778 -0.1833
vn -0.3554 -0.3708 0.8580
vn -0.8580 -0.3708 -0.3554
vn -0.6337 0.7277 0.2625
vn -0.2625 0.7277 -0.6337
vn -0.6337 0.7277 -0.2625
vn -0.2625 0.7277 0.6337
vn -0.7801 0.5358 -0.3231
vn -0.9050 0.2009 -0.3749
vn -0.9119 -0.1602 -0.3777
vn -0.3231 0.5358 0.7801
vn -0.3749 0.2009 0.9050
vn -0.3777 -0.1602 0.9119
vn -0.3231 0.5358 -0.7801
vn -0.3749 0.2009 -0.9050
vn -0.3777 -0.1602 -0.9119
vn -0.7801 0.5358 0.3231
vn -0.9050 0.2009 0.3749
vn -0.9119 -0.1602 0.3777
vn -0.4425 0.8778 0.1833
vn -0.1833 0.8778 -0.4425
vn -0.1833 0.8778 0.4425
vn 0.3444 0.4359 0.8315
vn 0.8315 0.4359 0.3444
vn 0.8315 0.4359 -0.3444
vn 0.3444 0.4359 -0.8315
vn 0.3819 -0.0622 0.9221
vn 0.9221 -0.0622 0.3819
vn 0.9221 -0.0622 -0.3819
vn 0.3819 -0.0622 -0.9221
vn 0.3675 -0.2788 0.8872
vn 0.8872 -0.2788 0.3675
vn 0.8872 -0.2788 -0.3675
vn 0.3675 -0.2788 -0.8872
vn 0.2959 0.6340 0.7144
vn 0.7144 0.6340 0.2959
vn 0.7144 0.6340 -0.2959
vn 0.2959 0.6340 -0.7144
vn 0.3798 -0.1221 0.9170
vn 0.3780 0.1559 0.9126
vn 0.9170 -0.1221 0.3798
vn 0.9126 0.1559 0.3780
vn 0.9170 -0.1221 -0.3798
vn 0.9126 0.1559 -0.3780
vn 0.3798 -0.1221 -0.9170
vn 0.3780 0.1559 -0.9126
vn 0.3282 0.5143 -0.7924
vn 0.7924 0.5143 -0.3282
vn 0.7924 0.5143 0.3282
vn 0.3282 0.5143 0.7924
vn 0.9231 0.0407 0.3824
vn 0.3827 0.0000 -0.9239
vn 0.9239 0.0000 -0.3827
vn 0.9239 0.0000 0.3827
vn 0.3827 0.0000 0.9239
vn 0.1891 0.8694 -0.4565
vn 0.4565 0.8694 -0.1891
vn 0.4565 0.8694 0.1891
vn 0.1891 0.8694 0.4565
vn 0.9231 0.0407 -0.3824
vn 0.3824 0.0407 0.9231
vn 0.3824 0.0407 -0.9231
vn 0.8580 -0.3708 0.3554
vn 0.3554 -0.3708 -0.8580
vn 0.4425 0.8778 -0.1833
vn 0.3554 -0.3708 0.8580
vn 0.8580 -0.3708 -0.3554
vn 0.6337 0.7277 0.2625
vn 0.2625 0.7277 -0.6337
vn 0.6337 0.7277 -0.2625
vn 0.2625 0.7277 0.6337
vn 0.7801 0.5358 -0.3231
vn 0.9050 0.2009 -0.3749
vn 0.9119 -0.1602 -0.3777
vn 0.3231 0.5358 0.7801
vn 0.3749 0.2009 0.9050
vn 0.3777 -0.1602 0.9119
vn 0.3231 0.5358 -0.7801
vn 0.3749 0.2009 -0.9050
vn 0.3777 -0.1602 -0.9119
vn 0.7801 0.5358 0.3231
vn 0.9050 0.2009 0.3749
vn 0.9119 -0.1602 0.3777
vn 0.4425 0.8778 0.1833
vn 0.1833 0.8778 -0.4425
vn 0.1833 0.8778 0.4425
usemtl ChestBoard
s off
f 88/1/1 108/2/1 20/3/1 8/4/1
f 8/4/2 20/3/2 21/5/2 9/6/2
f 9/6/3 21/5/3 22/7/3 10/8/3
f 10/8/4 22/7/4 112/9/4 92/10/4
f 93/11/5 11/12/5 14/13/5 98/14/5
f 11/12/6 12/15/6 15/16/6 14/13/6
f 12/15/7 13/17/7 16/18/7 15/16/7
f 13/17/8 97/19/8 102/20/8 16/18/8
f 23/21/9 113/22/9 83/23/9 5/24/9
f 24/25/10 23/21/10 5/24/10 6/26/10
f 25/27/11 24/25/11 6/26/11 7/28/11
f 117/29/12 25/27/12 7/28/12 87/30/12
f 83/23/13 88/1/13 8/4/13 5/24/13
f 5/24/14 8/4/14 9/6/14 6/26/14
f 6/26/15 9/6/15 10/8/15 7/28/15
f 7/28/16 10/8/16 92/10/16 87/30/16
f 76/31/17 103/32/17 17/33/17 1/34/17
f 103/32/18 98/14/18 14/13/18 17/33/18
f 1/34/19 17/33/19 18/35/19 2/36/19
f 17/33/20 14/13/20 15/16/20 18/35/20
f 2/36/21 18/35/21 19/37/21 3/38/21
f 18/35/22 15/16/22 16/18/22 19/37/22
f 3/38/23 19/37/23 107/39/23 82/40/23
f 19/37/24 16/18/24 102/20/24 107/39/24
f 97/19/25 13/17/25 25/41/25 117/42/25
f 13/17/26 12/15/26 24/43/26 25/41/26
f 12/15/27 11/12/27 23/44/27 24/43/27
f 11/12/28 93/11/28 113/45/28 23/44/28
f 2/46/29 3/47/29 118/48/29
f 1/49/29 2/46/29 118/48/29
f 3/47/29 82/50/29 118/48/29
f 76/51/29 1/49/29 118/48/29
f 27/52/30 26/53/30 28/54/30 29/55/30
f 44/56/31 43/57/31 33/58/31 32/59/31
f 151/60/31 45/61/31 31/62/31 127/63/31
f 43/57/31 147/64/31 131/65/31 33/58/31
f 45/61/31 44/56/31 32/59/31 31/62/31
f 36/66/32 42/67/32 146/68/32 136/69/32
f 35/70/33 41/71/33 42/67/33 36/66/33
f 34/72/34 40/73/34 41/71/34 35/70/34
f 30/74/29 36/66/29 136/69/29 126/75/29
f 132/76/35 142/77/35 40/73/35 34/72/35
f 29/78/29 35/70/29 36/66/29 30/74/29
f 141/79/31 146/68/31 42/67/31 39/80/31
f 38/81/31 41/71/31 40/73/31 37/82/31
f 39/80/31 42/67/31 41/71/31 38/81/31
f 37/82/31 40/73/31 142/77/31 137/83/31
f 28/84/29 34/72/29 35/70/29 29/78/29
f 122/85/29 132/76/29 34/72/29 28/84/29
f 141/86/32 39/87/32 45/61/32 151/60/32
f 38/88/34 37/89/34 43/57/34 44/56/34
f 39/87/33 38/88/33 44/56/33 45/61/33
f 37/89/35 137/90/35 147/64/35 43/57/35
f 31/62/33 32/59/33 47/91/33 46/92/33
f 32/59/34 33/58/34 48/93/34 47/91/34
f 127/63/32 31/62/32 46/92/32 152/94/32
f 33/58/35 131/65/35 156/95/35 48/93/35
f 46/92/29 47/91/29 50/96/29 49/97/29
f 47/91/29 48/93/29 51/98/29 50/96/29
f 152/94/29 46/92/29 49/97/29 157/99/29
f 48/93/29 156/95/29 161/100/29 51/98/29
f 51/98/35 161/100/35 166/101/35 54/102/35
f 49/97/33 50/96/33 53/103/33 52/104/33
f 50/96/34 51/98/34 54/102/34 53/103/34
f 157/99/32 49/97/32 52/104/32 162/105/32
f 53/103/31 54/102/31 57/106/31 56/107/31
f 162/105/31 52/104/31 55/108/31 167/109/31
f 54/102/31 166/101/31 171/110/31 57/106/31
f 52/104/31 53/103/31 56/107/31 55/108/31
f 112/9/36 22/7/36 4/111/36 121/112/36
f 22/7/37 21/5/37 27/113/37 4/111/37
f 21/5/38 20/3/38 26/114/38 27/113/38
f 20/3/39 108/2/39 77/115/39 26/114/39
f 4/116/40 27/52/40 29/55/40 30/117/40
f 26/53/41 77/118/41 122/119/41 28/54/41
f 121/120/42 4/116/42 30/117/42 126/121/42
f 56/122/43 57/123/43 66/124/43 61/125/43
f 167/126/44 55/127/44 70/128/44 190/129/44
f 75/130/45 74/131/45 177/132/45
f 57/123/46 171/133/46 178/134/46 66/124/46
f 55/127/47 56/122/47 61/125/47 70/128/47
f 62/135/48 65/136/48 60/137/48 59/138/48
f 191/139/49 69/140/49 58/141/49 172/142/49
f 69/140/50 62/135/50 59/138/50 58/141/50
f 65/136/51 179/143/51 176/144/51 60/137/51
f 62/135/52 69/140/52 71/145/52 64/146/52
f 64/146/53 71/145/53 72/147/53 63/148/53
f 63/148/54 72/147/54 70/128/54 61/125/54
f 179/143/55 65/136/55 67/149/55 181/150/55
f 181/150/56 67/149/56 68/151/56 180/152/56
f 180/152/57 68/151/57 66/124/57 178/134/57
f 69/140/58 191/139/58 193/153/58 71/145/58
f 71/145/59 193/153/59 192/154/59 72/147/59
f 72/147/60 192/154/60 190/129/60 70/128/60
f 65/136/61 62/135/61 64/146/61 67/149/61
f 67/149/62 64/146/62 63/148/62 68/151/62
f 68/151/63 63/148/63 61/125/63 66/124/63
f 74/131/64 73/155/64 177/132/64
f 199/156/65 75/130/65 177/132/65
f 73/155/66 202/157/66 177/132/66
f 60/158/35 176/159/35 202/157/35 73/155/35
f 172/160/32 58/161/32 75/130/32 199/156/32
f 59/162/34 60/158/34 73/155/34 74/131/34
f 58/161/33 59/162/33 74/131/33 75/130/33
f 88/1/67 89/163/67 109/164/67 108/2/67
f 89/163/68 90/165/68 110/166/68 109/164/68
f 90/165/69 91/167/69 111/168/69 110/166/69
f 91/167/70 92/10/70 112/9/70 111/168/70
f 93/11/71 98/14/71 99/169/71 94/170/71
f 94/170/72 99/169/72 100/171/72 95/172/72
f 95/172/73 100/171/73 101/173/73 96/174/73
f 96/174/74 101/173/74 102/20/74 97/19/74
f 114/175/75 84/176/75 83/23/75 113/22/75
f 115/177/76 85/178/76 84/176/76 114/175/76
f 116/179/77 86/180/77 85/178/77 115/177/77
f 117/29/78 87/30/78 86/180/78 116/179/78
f 83/23/79 84/176/79 89/163/79 88/1/79
f 84/176/80 85/178/80 90/165/80 89/163/80
f 85/178/81 86/180/81 91/167/81 90/165/81
f 86/180/82 87/30/82 92/10/82 91/167/82
f 76/31/83 78/181/83 104/182/83 103/32/83
f 103/32/84 104/182/84 99/169/84 98/14/84
f 78/181/85 79/183/85 105/184/85 104/182/85
f 104/182/86 105/184/86 100/171/86 99/169/86
f 79/183/87 80/185/87 106/186/87 105/184/87
f 105/184/88 106/186/88 101/173/88 100/171/88
f 80/185/89 82/40/89 107/39/89 106/186/89
f 106/186/90 107/39/90 102/20/90 101/173/90
f 97/19/91 117/42/91 116/187/91 96/174/91
f 96/174/92 116/187/92 115/188/92 95/172/92
f 95/172/93 115/188/93 114/189/93 94/170/93
f 94/170/94 114/189/94 113/45/94 93/11/94
f 79/190/29 118/48/29 80/191/29
f 78/192/29 118/48/29 79/190/29
f 80/191/29 118/48/29 82/50/29
f 76/51/29 118/48/29 78/192/29
f 120/193/95 124/194/95 123/195/95 119/196/95
f 149/197/31 129/198/31 130/199/31 148/200/31
f 151/60/31 127/63/31 128/201/31 150/202/31
f 148/200/31 130/199/31 131/65/31 147/64/31
f 150/202/31 128/201/31 129/198/31 149/197/31
f 135/203/96 136/69/96 146/68/96 145/204/96
f 134/205/97 135/203/97 145/204/97 144/206/97
f 133/207/98 134/205/98 144/206/98 143/208/98
f 125/209/29 126/75/29 136/69/29 135/203/29
f 132/76/99 133/207/99 143/208/99 142/77/99
f 124/210/29 125/209/29 135/203/29 134/205/29
f 141/79/31 140/211/31 145/204/31 146/68/31
f 139/212/31 138/213/31 143/208/31 144/206/31
f 140/211/31 139/212/31 144/206/31 145/204/31
f 138/213/31 137/83/31 142/77/31 143/208/31
f 123/214/29 124/210/29 134/205/29 133/207/29
f 122/85/29 123/214/29 133/207/29 132/76/29
f 141/86/96 151/60/96 150/202/96 140/215/96
f 139/216/98 149/197/98 148/200/98 138/217/98
f 140/215/97 150/202/97 149/197/97 139/216/97
f 138/217/99 148/200/99 147/64/99 137/90/99
f 128/201/97 153/218/97 154/219/97 129/198/97
f 129/198/98 154/219/98 155/220/98 130/199/98
f 127/63/96 152/94/96 153/218/96 128/201/96
f 130/199/99 155/220/99 156/95/99 131/65/99
f 153/218/29 158/221/29 159/222/29 154/219/29
f 154/219/29 159/222/29 160/223/29 155/220/29
f 152/94/29 157/99/29 158/221/29 153/218/29
f 155/220/29 160/223/29 161/100/29 156/95/29
f 160/223/99 165/224/99 166/101/99 161/100/99
f 158/221/97 163/225/97 164/226/97 159/222/97
f 159/222/98 164/226/98 165/224/98 160/223/98
f 157/99/96 162/105/96 163/225/96 158/221/96
f 164/226/31 169/227/31 170/228/31 165/224/31
f 162/105/31 167/109/31 168/229/31 163/225/31
f 165/224/31 170/228/31 171/110/31 166/101/31
f 163/225/31 168/229/31 169/227/31 164/226/31
f 112/9/100 121/112/100 81/230/100 111/168/100
f 111/168/101 81/230/101 120/231/101 110/166/101
f 110/166/102 120/231/102 119/232/102 109/164/102
f 109/164/103 119/232/103 77/115/103 108/2/103
f 81/233/104 125/234/104 124/194/104 120/193/104
f 119/196/105 123/195/105 122/119/105 77/118/105
f 121/120/106 126/121/106 125/234/106 81/233/106
f 169/235/107 182/236/107 187/237/107 170/238/107
f 167/126/108 190/129/108 195/239/108 168/240/108
f 201/241/109 177/132/109 200/242/109
f 170/238/110 187/237/110 178/134/110 171/133/110
f 168/240/111 195/239/111 182/236/111 169/235/111
f 183/243/112 174/244/112 175/245/112 186/246/112
f 191/139/113 172/142/113 173/247/113 194/248/113
f 194/248/114 173/247/114 174/244/114 183/243/114
f 186/246/115 175/245/115 176/144/115 179/143/115
f 183/243/116 185/249/116 196/250/116 194/248/116
f 185/249/117 184/251/117 197/252/117 196/250/117
f 184/251/118 182/236/118 195/239/118 197/252/118
f 179/143/119 181/150/119 188/253/119 186/246/119
f 181/150/120 180/152/120 189/254/120 188/253/120
f 180/152/121 178/134/121 187/237/121 189/254/121
f 194/248/122 196/250/122 193/153/122 191/139/122
f 196/250/123 197/252/123 192/154/123 193/153/123
f 197/252/124 195/239/124 190/129/124 192/154/124
f 186/246/125 188/253/125 185/249/125 183/243/125
f 188/253/126 189/254/126 184/251/126 185/249/126
f 189/254/127 187/237/127 182/236/127 184/251/127
f 200/242/128 177/132/128 198/255/128
f 199/156/129 177/132/129 201/241/129
f 198/255/130 177/132/130 202/157/130
f 175/256/99 198/255/99 202/157/99 176/159/99
f 172/160/96 199/156/96 201/241/96 173/257/96
f 174/258/98 200/242/98 198/255/98 175/256/98
f 173/257/97 201/241/97 200/242/97 174/258/97
