# Blender v2.78 (sub 0) OBJ File: 'Queen.blend'
# www.blender.org
mtllib Queen.mtl
o Black_Queen_Cylinder.012
v 1.622326 0.000001 1.622326
v 0.000000 0.000001 2.294316
v 0.000000 2.600001 1.074542
v -1.622327 0.000001 1.622327
v 1.595502 1.426443 1.595502
v 0.000000 1.426443 2.256382
v -1.595503 1.426443 1.595503
v 1.166751 2.109664 1.166751
v 0.000000 2.109664 1.650035
v -1.166751 2.109664 1.166751
v 1.620154 0.981571 1.620154
v 0.000000 0.981571 2.291244
v -1.620154 0.981571 1.620154
v 1.608193 0.730949 1.608192
v 0.000000 0.730949 2.274328
v -1.608193 0.730949 1.608193
v 1.654817 0.345083 1.654817
v 0.000000 0.345083 2.340266
v -1.654818 0.345083 1.654818
v 1.070493 2.369327 1.070493
v 0.000000 2.369327 1.513906
v -1.070494 2.369327 1.070494
v 1.536939 1.162896 1.536939
v 0.000000 1.162896 2.173560
v -1.536940 1.162896 1.536939
v 0.759816 2.600001 0.759816
v -0.759816 2.600001 0.759816
v 0.661166 7.500072 0.661166
v 0.000000 7.500072 0.935031
v -0.661167 7.500072 0.661167
v -0.657253 7.929340 0.657253
v 0.000000 7.929340 0.929496
v 0.657253 7.929340 0.657253
v 1.071968 7.500072 1.071968
v 0.000000 7.500072 1.515991
v -1.071968 7.500072 1.071968
v 0.768130 7.733702 0.768130
v 0.000000 7.733702 1.086300
v -0.768130 7.733702 0.768130
v 1.071968 7.733702 1.071968
v 0.000000 7.733702 1.515991
v -1.071968 7.733702 1.071968
v 0.768130 7.929340 0.768130
v 0.000000 7.929340 1.086300
v -0.768130 7.929340 0.768130
v -0.657253 8.176850 0.657253
v 0.000000 8.176850 0.929496
v 0.657253 8.176850 0.657253
v -0.757100 8.176850 0.757100
v 0.000000 8.176850 1.070701
v 0.757100 8.176850 0.757100
v -0.757100 8.362514 0.757100
v 0.000000 8.362514 1.070701
v 0.757100 8.362514 0.757100
v -0.657092 8.362514 0.657092
v 0.000000 8.362514 0.929269
v 0.657092 8.362514 0.657092
v 0.000000 10.816954 1.960991
v -1.386630 11.016953 1.386630
v 1.386630 11.016953 1.386630
v 0.753393 10.756964 0.753393
v -0.753394 10.756964 0.753393
v 0.000000 10.556964 1.065459
v 0.000000 9.585695 1.070801
v 0.757170 9.585695 0.757170
v -0.757171 9.585695 0.757171
v 1.386630 10.600406 1.386630
v -1.386630 10.600406 1.386630
v 0.000000 10.400406 1.960991
v 0.000000 11.048331 0.404711
v -0.286174 11.048331 0.286174
v 0.286173 11.048331 0.286174
v 0.000000 11.228394 0.383887
v 0.000000 11.373830 0.239442
v -0.271449 11.228394 0.271449
v -0.169311 11.373830 0.169311
v 0.169311 11.373830 0.169311
v 0.271449 11.228394 0.271449
v 2.294315 0.000001 0.000000
v 1.074541 2.600001 0.000000
v 1.622326 0.000001 -1.622326
v 0.000000 0.000001 -2.294316
v 0.000000 2.600001 -1.074542
v -1.622327 0.000001 -1.622327
v -2.294317 0.000001 0.000000
v 2.256381 1.426443 0.000000
v 1.595502 1.426443 -1.595502
v 0.000000 1.426443 -2.256382
v -1.595503 1.426443 -1.595503
v -2.256382 1.426443 0.000000
v 1.650034 2.109664 0.000000
v 1.166751 2.109664 -1.166751
v 0.000000 2.109664 -1.650035
v -1.166751 2.109664 -1.166751
v -1.650035 2.109664 0.000000
v 2.291243 0.981571 0.000000
v 1.620154 0.981571 -1.620154
v 0.000000 0.981571 -2.291244
v -1.620154 0.981571 -1.620154
v -2.291244 0.981571 0.000000
v 2.274327 0.730949 0.000000
v 1.608193 0.730949 -1.608192
v 0.000000 0.730949 -2.274328
v -1.608193 0.730949 -1.608193
v -2.274328 0.730949 0.000000
v 2.340265 0.345083 0.000000
v 1.654817 0.345083 -1.654817
v 0.000000 0.345083 -2.340266
v -1.654818 0.345083 -1.654818
v -2.340266 0.345083 0.000000
v 1.513906 2.369327 0.000000
v 1.070493 2.369327 -1.070493
v 0.000000 2.369327 -1.513906
v -1.070494 2.369327 -1.070494
v -1.513906 2.369327 0.000000
v 2.173559 1.162896 0.000000
v 1.536939 1.162896 -1.536939
v 0.000000 1.162896 -2.173560
v -1.536940 1.162896 -1.536939
v -2.173560 1.162896 0.000000
v 0.000000 0.000001 0.000000
v 0.759816 2.600001 -0.759816
v -0.759816 2.600001 -0.759816
v -1.074542 2.600001 0.000000
v 0.935030 7.500072 0.000000
v 0.661166 7.500072 -0.661166
v 0.000000 7.500072 -0.935031
v -0.661167 7.500072 -0.661167
v -0.935031 7.500072 0.000000
v -0.929496 7.929340 0.000000
v -0.657253 7.929340 -0.657253
v 0.000000 7.929340 -0.929496
v 0.657253 7.929340 -0.657253
v 0.929496 7.929340 0.000000
v 1.515991 7.500072 0.000000
v 1.071968 7.500072 -1.071968
v 0.000000 7.500072 -1.515991
v -1.071968 7.500072 -1.071968
v -1.515991 7.500072 0.000000
v 1.086299 7.733702 0.000000
v 0.768130 7.733702 -0.768130
v 0.000000 7.733702 -1.086300
v -0.768130 7.733702 -0.768130
v -1.086299 7.733702 0.000000
v 1.515991 7.733702 0.000000
v 1.071968 7.733702 -1.071968
v 0.000000 7.733702 -1.515991
v -1.071968 7.733702 -1.071968
v -1.515991 7.733702 0.000000
v 1.086299 7.929340 0.000000
v 0.768130 7.929340 -0.768130
v 0.000000 7.929340 -1.086300
v -0.768130 7.929340 -0.768130
v -1.086299 7.929340 0.000000
v -0.929496 8.176850 0.000000
v -0.657253 8.176850 -0.657253
v 0.000000 8.176850 -0.929496
v 0.657253 8.176850 -0.657253
v 0.929496 8.176850 0.000000
v -1.070701 8.176850 0.000000
v -0.757100 8.176850 -0.757100
v 0.000000 8.176850 -1.070701
v 0.757100 8.176850 -0.757100
v 1.070700 8.176850 0.000000
v -1.070701 8.362514 0.000000
v -0.757100 8.362514 -0.757100
v 0.000000 8.362514 -1.070701
v 0.757100 8.362514 -0.757100
v 1.070700 8.362514 0.000000
v -0.929269 8.362514 0.000000
v -0.657092 8.362514 -0.657092
v 0.000000 8.362514 -0.929269
v 0.657092 8.362514 -0.657092
v 0.929268 8.362514 0.000000
v -1.960991 10.816954 0.000000
v 0.000000 10.816954 -1.960991
v 1.960990 10.816954 0.000000
v -1.386630 11.016953 -1.386630
v 1.386630 11.016953 -1.386630
v 0.753393 10.756964 -0.753393
v -0.753394 10.756964 -0.753393
v 1.065459 10.556964 0.000000
v 0.000000 10.556964 -1.065459
v -1.065459 10.556964 0.000000
v 1.070800 9.585695 0.000000
v 0.000000 9.585695 -1.070801
v 0.757170 9.585695 -0.757170
v -1.070801 9.585695 0.000000
v -0.757171 9.585695 -0.757171
v 1.386630 10.600406 -1.386630
v -1.386630 10.600406 -1.386630
v 1.960990 10.400406 0.000000
v 0.000000 10.400406 -1.960991
v -1.960991 10.400406 0.000000
v -0.000000 11.471223 0.000000
v -0.404710 11.048331 0.000000
v 0.000000 11.048331 -0.404711
v 0.404710 11.048331 0.000000
v -0.286174 11.048331 -0.286174
v 0.286173 11.048331 -0.286174
v 0.000000 11.228394 -0.383887
v 0.000000 11.373830 -0.239442
v -0.271449 11.228394 -0.271449
v -0.169311 11.373830 -0.169311
v -0.239442 11.373830 0.000000
v -0.383887 11.228394 0.000000
v 0.383887 11.228394 0.000000
v 0.239442 11.373830 0.000000
v 0.169311 11.373830 -0.169311
v 0.271449 11.228394 -0.271449
vt 0.1893 0.0815
vt 0.2103 0.1019
vt 0.1467 0.1961
vt 0.1219 0.1859
vt 0.1283 0.2969
vt 0.1022 0.2970
vt 0.1485 0.3961
vt 0.1235 0.4063
vt 0.2092 0.4862
vt 0.1875 0.5063
vt 0.8219 0.3167
vt 0.7969 0.4767
vt 0.7734 0.4745
vt 0.7967 0.3135
vt 0.7888 0.6311
vt 0.7660 0.6313
vt 0.7962 0.7849
vt 0.7740 0.7873
vt 0.8206 0.9440
vt 0.7979 0.9468
vt 0.0190 0.1510
vt 0.0868 0.0003
vt 0.1155 0.0100
vt 0.0447 0.1582
vt 0.0003 0.3003
vt 0.0252 0.2988
vt 0.0315 0.4407
vt 0.0537 0.4323
vt 0.1014 0.5767
vt 0.1252 0.5678
vt 0.7264 0.3036
vt 0.7592 0.3061
vt 0.7375 0.4711
vt 0.7056 0.4682
vt 0.7308 0.6314
vt 0.6986 0.6314
vt 0.7393 0.7907
vt 0.7070 0.7937
vt 0.7628 0.9544
vt 0.7292 0.9574
vt 0.8160 0.7829
vt 0.8409 0.9364
vt 0.8086 0.6312
vt 0.8161 0.4787
vt 0.8409 0.3241
vt 0.0621 0.6392
vt 0.2115 0.5773
vt 0.2115 0.7885
vt 0.0621 0.9379
vt 0.0003 0.7885
vt 0.2115 0.9997
vt 0.2436 0.3030
vt 0.2412 0.2274
vt 0.6923 0.2175
vt 0.6945 0.2834
vt 0.7137 0.1485
vt 0.7232 0.0769
vt 0.7355 0.0806
vt 0.7275 0.1489
vt 0.7540 0.2892
vt 0.7234 0.2202
vt 0.7374 0.2166
vt 0.7651 0.2774
vt 0.7535 0.0085
vt 0.7625 0.0181
vt 0.9108 0.5696
vt 0.9294 0.5706
vt 0.9315 0.6762
vt 0.9056 0.6766
vt 0.9131 0.4896
vt 0.9310 0.4903
vt 0.9715 0.6555
vt 0.9642 0.5688
vt 0.9670 0.4892
vt 0.9298 0.4098
vt 0.9683 0.4080
vt 0.9249 0.3036
vt 0.9715 0.3201
vt 0.8559 0.5675
vt 0.8414 0.6469
vt 0.8620 0.4914
vt 0.8631 0.4171
vt 0.9112 0.4102
vt 0.8993 0.3063
vt 0.8475 0.3415
vt 0.7372 0.2964
vt 0.7064 0.2253
vt 0.6950 0.1492
vt 0.7048 0.0725
vt 0.7349 0.0003
vt 0.7582 0.0870
vt 0.7497 0.1490
vt 0.7587 0.2109
vt 0.7834 0.2692
vt 0.7834 0.0269
vt 0.9386 0.1422
vt 0.9394 0.2073
vt 0.9268 0.2073
vt 0.9266 0.1421
vt 0.9424 0.0072
vt 0.9381 0.0775
vt 0.9264 0.0771
vt 0.9298 0.0011
vt 0.9424 0.2784
vt 0.9280 0.2846
vt 0.9071 0.2838
vt 0.9105 0.2078
vt 0.9103 0.1428
vt 0.9101 0.0776
vt 0.9089 0.0003
vt 0.8975 0.0775
vt 0.8945 0.0065
vt 0.8945 0.2776
vt 0.8988 0.2073
vt 0.8982 0.1427
vt 0.5350 0.4252
vt 0.6125 0.3036
vt 0.6428 0.3291
vt 0.5699 0.4405
vt 0.6125 0.8112
vt 0.5350 0.6896
vt 0.5699 0.6742
vt 0.6428 0.7856
vt 0.5021 0.5574
vt 0.5387 0.5574
vt 0.6980 0.4073
vt 0.6451 0.4753
vt 0.6247 0.5574
vt 0.6451 0.6395
vt 0.4836 0.4721
vt 0.4762 0.5321
vt 0.3550 0.5330
vt 0.3681 0.4487
vt 0.4830 0.5899
vt 0.5015 0.6446
vt 0.4089 0.6841
vt 0.3750 0.6153
vt 0.5015 0.4106
vt 0.3965 0.3748
vt 0.2403 0.5382
vt 0.2463 0.4086
vt 0.3397 0.7609
vt 0.2589 0.6655
vt 0.3190 0.3036
vt 0.2120 0.6341
vt 0.2133 0.6056
vt 0.2299 0.6070
vt 0.2287 0.6341
vt 0.2170 0.6908
vt 0.2133 0.6625
vt 0.2299 0.6611
vt 0.2335 0.6879
vt 0.8180 0.1853
vt 0.7840 0.1159
vt 0.8598 0.1159
vt 0.8692 0.1428
vt 0.8180 0.0465
vt 0.8800 0.0003
vt 0.8939 0.0748
vt 0.8692 0.0890
vt 0.8800 0.2315
vt 0.8939 0.1570
vt 0.6980 0.7075
vt 0.1916 0.3784
vt 0.2398 0.4449
vt 0.1747 0.2975
vt 0.1895 0.2148
vt 0.2398 0.1448
vt 0.2403 0.1517
vt 0.2412 0.0759
vt 0.6923 0.0858
vt 0.6916 0.1517
vt 0.2436 0.0003
vt 0.6945 0.0199
vt 0.2665 0.7868
vt 0.2819 0.7802
vt 0.2819 0.8050
vt 0.2170 0.5773
vt 0.2335 0.5802
vt 0.2586 0.8008
vt 0.2734 0.8283
vt 0.2611 0.8167
vt 0.2542 0.7729
vt 0.2789 0.7615
vt 0.2634 0.8456
vt 0.2437 0.8247
vt 0.2403 0.7968
vt 0.1219 0.1859
vt 0.1467 0.1961
vt 0.1022 0.2970
vt 0.1283 0.2969
vt 0.1235 0.4063
vt 0.1485 0.3961
vt 0.7734 0.4745
vt 0.7969 0.4767
vt 0.7660 0.6313
vt 0.7888 0.6311
vt 0.7740 0.7873
vt 0.7962 0.7849
vt 0.0190 0.1510
vt 0.0447 0.1582
vt 0.0003 0.3003
vt 0.0252 0.2988
vt 0.0315 0.4407
vt 0.0537 0.4323
vt 0.7056 0.4682
vt 0.7375 0.4711
vt 0.6986 0.6314
vt 0.7308 0.6314
vt 0.7070 0.7937
vt 0.7393 0.7907
vt 0.8160 0.7829
vt 0.8086 0.6312
vt 0.8161 0.4787
vt 0.0621 0.6392
vt 0.0621 0.9379
vt 0.0003 0.7885
vt 0.6923 0.2175
vt 0.2412 0.2274
vt 0.7137 0.1485
vt 0.7275 0.1489
vt 0.7355 0.0806
vt 0.7232 0.0769
vt 0.7374 0.2166
vt 0.7234 0.2202
vt 0.9108 0.5696
vt 0.9294 0.5706
vt 0.9131 0.4896
vt 0.9310 0.4903
vt 0.9642 0.5688
vt 0.9670 0.4892
vt 0.9683 0.4080
vt 0.9298 0.4098
vt 0.8559 0.5675
vt 0.8620 0.4914
vt 0.8631 0.4171
vt 0.9112 0.4102
vt 0.7064 0.2253
vt 0.6950 0.1492
vt 0.7048 0.0725
vt 0.7497 0.1490
vt 0.7582 0.0870
vt 0.7587 0.2109
vt 0.9386 0.1422
vt 0.9266 0.1421
vt 0.9268 0.2073
vt 0.9394 0.2073
vt 0.9264 0.0771
vt 0.9381 0.0775
vt 0.9105 0.2078
vt 0.9101 0.0776
vt 0.9103 0.1428
vt 0.8975 0.0775
vt 0.8988 0.2073
vt 0.8982 0.1427
vt 0.5350 0.4252
vt 0.5699 0.4405
vt 0.5699 0.6742
vt 0.5350 0.6896
vt 0.5387 0.5574
vt 0.5021 0.5574
vt 0.6451 0.4753
vt 0.6247 0.5574
vt 0.6451 0.6395
vt 0.4836 0.4721
vt 0.3681 0.4487
vt 0.3550 0.5330
vt 0.4762 0.5321
vt 0.4830 0.5899
vt 0.3750 0.6153
vt 0.2463 0.4086
vt 0.2403 0.5382
vt 0.2589 0.6655
vt 0.2120 0.6341
vt 0.2287 0.6341
vt 0.2299 0.6070
vt 0.2133 0.6056
vt 0.2299 0.6611
vt 0.2133 0.6625
vt 0.8180 0.1853
vt 0.8692 0.1428
vt 0.8598 0.1159
vt 0.7840 0.1159
vt 0.8180 0.0465
vt 0.8692 0.0890
vt 0.1916 0.3784
vt 0.1747 0.2975
vt 0.1895 0.2148
vt 0.2403 0.1517
vt 0.6916 0.1517
vt 0.6923 0.0858
vt 0.2412 0.0759
vt 0.2665 0.7868
vt 0.2586 0.8008
vt 0.2611 0.8167
vt 0.2542 0.7729
vt 0.2437 0.8247
vt 0.2403 0.7968
vn 0.8315 0.4359 0.3444
vn 0.3444 0.4359 0.8315
vn -0.3444 0.4359 0.8315
vn -0.8315 0.4359 0.3444
vn 0.9221 -0.0622 0.3819
vn 0.3819 -0.0622 0.9221
vn -0.3819 -0.0622 0.9221
vn -0.9221 -0.0622 0.3819
vn 0.8872 -0.2788 0.3675
vn 0.3675 -0.2788 0.8872
vn -0.3675 -0.2788 0.8872
vn -0.8872 -0.2788 0.3675
vn 0.7144 0.6340 0.2959
vn 0.2959 0.6340 0.7144
vn -0.2959 0.6340 0.7144
vn -0.7144 0.6340 0.2959
vn 0.9170 -0.1221 0.3798
vn 0.9126 0.1559 0.3780
vn 0.3798 -0.1221 0.9170
vn 0.3780 0.1559 0.9126
vn -0.3798 -0.1221 0.9170
vn -0.3780 0.1559 0.9126
vn -0.9170 -0.1221 0.3798
vn -0.9126 0.1559 0.3780
vn -0.7924 0.5143 0.3282
vn -0.3282 0.5143 0.7924
vn 0.3282 0.5143 0.7924
vn 0.7924 0.5143 0.3282
vn 0.0000 -1.0000 0.0000
vn -0.9236 0.0263 0.3826
vn 0.0000 1.0000 0.0000
vn -0.9239 0.0000 0.3827
vn -0.3827 0.0000 0.9239
vn 0.9239 0.0000 0.3827
vn 0.3827 0.0000 0.9239
vn -0.2111 0.9413 -0.2634
vn -0.2634 0.9413 -0.2111
vn 0.2634 0.9413 -0.2111
vn -0.3805 -0.1063 0.9186
vn 0.9186 -0.1063 0.3805
vn -0.9186 -0.1063 0.3805
vn 0.3805 -0.1063 0.9186
vn -0.3373 -0.6675 0.6639
vn 0.6639 -0.6675 0.3373
vn -0.6639 -0.6675 0.3373
vn 0.3373 -0.6675 0.6639
vn 0.3805 0.1062 0.9187
vn -0.9187 0.1062 0.3805
vn -0.0675 0.8326 0.5498
vn 0.5498 0.8326 0.0675
vn -0.5498 0.8326 0.0675
vn 0.0675 0.8326 0.5498
vn 0.2111 0.9413 -0.2634
vn -0.4565 0.8694 0.1891
vn -0.1891 0.8694 0.4565
vn 0.1891 0.8694 0.4565
vn 0.4565 0.8694 0.1891
vn 0.3826 0.0263 0.9236
vn -0.3826 0.0263 0.9236
vn 0.9236 0.0263 0.3826
vn 0.3723 0.9152 0.1542
vn 0.9187 0.1062 0.3805
vn 0.1542 0.9152 0.3723
vn -0.3723 0.9152 0.1542
vn -0.3805 0.1062 0.9187
vn 0.6807 0.6761 0.2820
vn -0.6807 0.6761 0.2820
vn -0.2820 0.6761 0.6807
vn 0.2820 0.6761 0.6807
vn -0.1542 0.9152 0.3723
vn 0.8315 0.4359 -0.3444
vn 0.3444 0.4359 -0.8315
vn -0.3444 0.4359 -0.8315
vn -0.8315 0.4359 -0.3444
vn 0.9221 -0.0622 -0.3819
vn 0.3819 -0.0622 -0.9221
vn -0.3819 -0.0622 -0.9221
vn -0.9221 -0.0622 -0.3819
vn 0.8872 -0.2788 -0.3675
vn 0.3675 -0.2788 -0.8872
vn -0.3675 -0.2788 -0.8872
vn -0.8872 -0.2788 -0.3675
vn 0.7144 0.6340 -0.2959
vn 0.2959 0.6340 -0.7144
vn -0.2959 0.6340 -0.7144
vn -0.7144 0.6340 -0.2959
vn 0.9170 -0.1221 -0.3798
vn 0.9126 0.1559 -0.3780
vn 0.3798 -0.1221 -0.9170
vn 0.3780 0.1559 -0.9126
vn -0.3798 -0.1221 -0.9170
vn -0.3780 0.1559 -0.9126
vn -0.9170 -0.1221 -0.3798
vn -0.9126 0.1559 -0.3780
vn -0.7924 0.5143 -0.3282
vn -0.3282 0.5143 -0.7924
vn 0.3282 0.5143 -0.7924
vn 0.7924 0.5143 -0.3282
vn -0.9236 0.0263 -0.3826
vn -0.9239 0.0000 -0.3827
vn -0.3827 0.0000 -0.9239
vn 0.9239 0.0000 -0.3827
vn 0.3827 0.0000 -0.9239
vn -0.2111 0.9413 0.2634
vn -0.2634 0.9413 0.2111
vn 0.2634 0.9413 0.2111
vn -0.3805 -0.1063 -0.9186
vn 0.9186 -0.1063 -0.3805
vn -0.9186 -0.1063 -0.3805
vn 0.3805 -0.1063 -0.9186
vn -0.3373 -0.6675 -0.6639
vn 0.6639 -0.6675 -0.3373
vn -0.6639 -0.6675 -0.3373
vn 0.3373 -0.6675 -0.6639
vn 0.3805 0.1062 -0.9187
vn -0.9187 0.1062 -0.3805
vn -0.0675 0.8326 -0.5498
vn 0.5498 0.8326 -0.0675
vn -0.5498 0.8326 -0.0675
vn 0.0675 0.8326 -0.5498
vn 0.2111 0.9413 0.2634
vn -0.4565 0.8694 -0.1891
vn -0.1891 0.8694 -0.4565
vn 0.1891 0.8694 -0.4565
vn 0.4565 0.8694 -0.1891
vn 0.3826 0.0263 -0.9236
vn -0.3826 0.0263 -0.9236
vn 0.9236 0.0263 -0.3826
vn 0.3723 0.9152 -0.1542
vn 0.9187 0.1062 -0.3805
vn 0.1542 0.9152 -0.3723
vn -0.3723 0.9152 -0.1542
vn -0.3805 0.1062 -0.9187
vn 0.6807 0.6761 -0.2820
vn -0.6807 0.6761 -0.2820
vn -0.2820 0.6761 -0.6807
vn 0.2820 0.6761 -0.6807
vn -0.1542 0.9152 -0.3723
usemtl ChestBoard.003
s off
f 91/1/1 111/2/1 20/3/1 8/4/1
f 8/4/2 20/3/2 21/5/2 9/6/2
f 9/6/3 21/5/3 22/7/3 10/8/3
f 10/8/4 22/7/4 115/9/4 95/10/4
f 96/11/5 11/12/5 14/13/5 101/14/5
f 11/12/6 12/15/6 15/16/6 14/13/6
f 12/15/7 13/17/7 16/18/7 15/16/7
f 13/17/8 100/19/8 105/20/8 16/18/8
f 23/21/9 116/22/9 86/23/9 5/24/9
f 24/25/10 23/21/10 5/24/10 6/26/10
f 25/27/11 24/25/11 6/26/11 7/28/11
f 120/29/12 25/27/12 7/28/12 90/30/12
f 86/23/13 91/1/13 8/4/13 5/24/13
f 5/24/14 8/4/14 9/6/14 6/26/14
f 6/26/15 9/6/15 10/8/15 7/28/15
f 7/28/16 10/8/16 95/10/16 90/30/16
f 79/31/17 106/32/17 17/33/17 1/34/17
f 106/32/18 101/14/18 14/13/18 17/33/18
f 1/34/19 17/33/19 18/35/19 2/36/19
f 17/33/20 14/13/20 15/16/20 18/35/20
f 2/36/21 18/35/21 19/37/21 4/38/21
f 18/35/22 15/16/22 16/18/22 19/37/22
f 4/38/23 19/37/23 110/39/23 85/40/23
f 19/37/24 16/18/24 105/20/24 110/39/24
f 100/19/25 13/17/25 25/41/25 120/42/25
f 13/17/26 12/15/26 24/43/26 25/41/26
f 12/15/27 11/12/27 23/44/27 24/43/27
f 11/12/28 96/11/28 116/45/28 23/44/28
f 4/46/29 85/47/29 121/48/29
f 1/49/29 2/50/29 121/48/29
f 2/50/29 4/46/29 121/48/29
f 79/51/29 1/49/29 121/48/29
f 124/52/30 27/53/30 30/54/30 129/55/30
f 44/56/31 43/57/31 33/58/31 32/59/31
f 154/60/31 45/61/31 31/62/31 130/63/31
f 43/57/31 150/64/31 134/65/31 33/58/31
f 45/61/31 44/56/31 32/59/31 31/62/31
f 36/66/32 42/67/32 149/68/32 139/69/32
f 35/70/33 41/71/33 42/67/33 36/66/33
f 144/72/31 149/68/31 42/67/31 39/73/31
f 38/74/31 41/71/31 40/75/31 37/76/31
f 39/73/31 42/67/31 41/71/31 38/74/31
f 37/76/31 40/75/31 145/77/31 140/78/31
f 30/79/29 36/66/29 139/69/29 129/80/29
f 29/81/29 35/70/29 36/66/29 30/79/29
f 28/82/29 34/83/29 35/70/29 29/81/29
f 135/84/34 145/77/34 40/75/34 34/83/34
f 125/85/29 135/84/29 34/83/29 28/82/29
f 34/83/35 40/75/35 41/71/35 35/70/35
f 144/86/32 39/87/32 45/61/32 154/60/32
f 38/88/35 37/89/35 43/57/35 44/56/35
f 39/87/33 38/88/33 44/56/33 45/61/33
f 37/89/34 140/90/34 150/64/34 43/57/34
f 32/59/35 33/58/35 48/91/35 47/92/35
f 130/63/32 31/62/32 46/93/32 155/94/32
f 33/58/34 134/65/34 159/95/34 48/91/34
f 31/62/33 32/59/33 47/92/33 46/93/33
f 47/96/29 48/97/29 51/98/29 50/99/29
f 155/100/29 46/101/29 49/102/29 160/103/29
f 48/97/29 159/104/29 164/105/29 51/98/29
f 46/101/29 47/96/29 50/99/29 49/102/29
f 51/98/34 164/105/34 169/106/34 54/107/34
f 49/102/33 50/99/33 53/108/33 52/109/33
f 50/99/35 51/98/35 54/107/35 53/108/35
f 160/103/32 49/102/32 52/109/32 165/110/32
f 165/110/31 52/109/31 55/111/31 170/112/31
f 54/107/31 169/106/31 174/113/31 57/114/31
f 52/109/31 53/108/31 56/115/31 55/111/31
f 53/108/31 54/107/31 57/114/31 56/115/31
f 67/116/34 192/117/34 177/118/34 60/119/34
f 194/120/32 68/121/32 59/122/32 175/123/32
f 68/121/33 69/124/33 58/125/33 59/122/33
f 69/124/35 67/116/35 60/119/35 58/125/35
f 60/119/36 177/118/36 182/126/36 61/127/36
f 58/125/37 60/119/37 61/127/37 63/128/37
f 59/122/38 58/125/38 63/128/38 62/129/38
f 55/130/39 56/131/39 64/132/39 66/133/39
f 57/134/40 174/135/40 185/136/40 65/137/40
f 170/138/41 55/130/41 66/133/41 188/139/41
f 56/131/42 57/134/42 65/137/42 64/132/42
f 66/133/43 64/132/43 69/140/43 68/141/43
f 65/137/44 185/136/44 192/142/44 67/143/44
f 188/139/45 66/133/45 68/141/45 194/144/45
f 64/132/46 65/137/46 67/143/46 69/140/46
f 70/145/47 72/146/47 78/147/47 73/148/47
f 196/149/48 71/150/48 75/151/48 206/152/48
f 62/153/49 63/154/49 70/155/49 71/156/49
f 61/157/50 182/158/50 198/159/50 72/160/50
f 184/161/51 62/153/51 71/156/51 196/162/51
f 63/154/52 61/157/52 72/160/52 70/155/52
f 175/123/53 59/122/53 62/129/53 184/163/53
f 115/9/54 22/7/54 27/164/54 124/165/54
f 22/7/55 21/5/55 3/166/55 27/164/55
f 21/5/56 20/3/56 26/167/56 3/166/56
f 20/3/57 111/2/57 80/168/57 26/167/57
f 3/169/58 26/170/58 28/171/58 29/172/58
f 27/53/59 3/169/59 29/172/59 30/54/59
f 26/170/60 80/173/60 125/174/60 28/171/60
f 77/175/61 208/176/61 195/177/61
f 72/146/62 198/178/62 207/179/62 78/147/62
f 74/180/63 77/175/63 195/177/63
f 205/181/64 76/182/64 195/177/64
f 71/150/65 70/145/65 73/148/65 75/151/65
f 77/175/66 78/183/66 207/184/66 208/176/66
f 205/181/67 206/185/67 75/186/67 76/182/67
f 76/182/68 75/186/68 73/187/68 74/180/68
f 74/180/69 73/187/69 78/183/69 77/175/69
f 76/182/70 74/180/70 195/177/70
f 91/1/71 92/188/71 112/189/71 111/2/71
f 92/188/72 93/190/72 113/191/72 112/189/72
f 93/190/73 94/192/73 114/193/73 113/191/73
f 94/192/74 95/10/74 115/9/74 114/193/74
f 96/11/75 101/14/75 102/194/75 97/195/75
f 97/195/76 102/194/76 103/196/76 98/197/76
f 98/197/77 103/196/77 104/198/77 99/199/77
f 99/199/78 104/198/78 105/20/78 100/19/78
f 117/200/79 87/201/79 86/23/79 116/22/79
f 118/202/80 88/203/80 87/201/80 117/200/80
f 119/204/81 89/205/81 88/203/81 118/202/81
f 120/29/82 90/30/82 89/205/82 119/204/82
f 86/23/83 87/201/83 92/188/83 91/1/83
f 87/201/84 88/203/84 93/190/84 92/188/84
f 88/203/85 89/205/85 94/192/85 93/190/85
f 89/205/86 90/30/86 95/10/86 94/192/86
f 79/31/87 81/206/87 107/207/87 106/32/87
f 106/32/88 107/207/88 102/194/88 101/14/88
f 81/206/89 82/208/89 108/209/89 107/207/89
f 107/207/90 108/209/90 103/196/90 102/194/90
f 82/208/91 84/210/91 109/211/91 108/209/91
f 108/209/92 109/211/92 104/198/92 103/196/92
f 84/210/93 85/40/93 110/39/93 109/211/93
f 109/211/94 110/39/94 105/20/94 104/198/94
f 100/19/95 120/42/95 119/212/95 99/199/95
f 99/199/96 119/212/96 118/213/96 98/197/96
f 98/197/97 118/213/97 117/214/97 97/195/97
f 97/195/98 117/214/98 116/45/98 96/11/98
f 84/215/29 121/48/29 85/47/29
f 81/216/29 121/48/29 82/217/29
f 82/217/29 121/48/29 84/215/29
f 79/51/29 121/48/29 81/216/29
f 124/52/99 129/55/99 128/218/99 123/219/99
f 152/220/31 132/221/31 133/222/31 151/223/31
f 154/60/31 130/63/31 131/224/31 153/225/31
f 151/223/31 133/222/31 134/65/31 150/64/31
f 153/225/31 131/224/31 132/221/31 152/220/31
f 138/226/100 139/69/100 149/68/100 148/227/100
f 137/228/101 138/226/101 148/227/101 147/229/101
f 144/72/31 143/230/31 148/227/31 149/68/31
f 142/231/31 141/232/31 146/233/31 147/229/31
f 143/230/31 142/231/31 147/229/31 148/227/31
f 141/232/31 140/78/31 145/77/31 146/233/31
f 128/234/29 129/80/29 139/69/29 138/226/29
f 127/235/29 128/234/29 138/226/29 137/228/29
f 126/236/29 127/235/29 137/228/29 136/237/29
f 135/84/102 136/237/102 146/233/102 145/77/102
f 125/85/29 126/236/29 136/237/29 135/84/29
f 136/237/103 137/228/103 147/229/103 146/233/103
f 144/86/100 154/60/100 153/225/100 143/238/100
f 142/239/103 152/220/103 151/223/103 141/240/103
f 143/238/101 153/225/101 152/220/101 142/239/101
f 141/240/102 151/223/102 150/64/102 140/90/102
f 132/221/103 157/241/103 158/242/103 133/222/103
f 130/63/100 155/94/100 156/243/100 131/224/100
f 133/222/102 158/242/102 159/95/102 134/65/102
f 131/224/101 156/243/101 157/241/101 132/221/101
f 157/244/29 162/245/29 163/246/29 158/247/29
f 155/100/29 160/103/29 161/248/29 156/249/29
f 158/247/29 163/246/29 164/105/29 159/104/29
f 156/249/29 161/248/29 162/245/29 157/244/29
f 163/246/102 168/250/102 169/106/102 164/105/102
f 161/248/101 166/251/101 167/252/101 162/245/101
f 162/245/103 167/252/103 168/250/103 163/246/103
f 160/103/100 165/110/100 166/251/100 161/248/100
f 165/110/31 170/112/31 171/253/31 166/251/31
f 168/250/31 173/254/31 174/113/31 169/106/31
f 166/251/31 171/253/31 172/255/31 167/252/31
f 167/252/31 172/255/31 173/254/31 168/250/31
f 190/256/102 179/257/102 177/118/102 192/117/102
f 194/120/100 175/123/100 178/258/100 191/259/100
f 191/259/101 178/258/101 176/260/101 193/261/101
f 193/261/103 176/260/103 179/257/103 190/256/103
f 179/257/104 180/262/104 182/126/104 177/118/104
f 176/260/105 183/263/105 180/262/105 179/257/105
f 178/258/106 181/264/106 183/263/106 176/260/106
f 171/265/107 189/266/107 186/267/107 172/268/107
f 173/269/108 187/270/108 185/136/108 174/135/108
f 170/138/109 188/139/109 189/266/109 171/265/109
f 172/268/110 186/267/110 187/270/110 173/269/110
f 189/266/111 191/271/111 193/272/111 186/267/111
f 187/270/112 190/273/112 192/142/112 185/136/112
f 188/139/113 194/144/113 191/271/113 189/266/113
f 186/267/114 193/272/114 190/273/114 187/270/114
f 197/274/115 201/275/115 210/276/115 200/277/115
f 196/149/116 206/152/116 203/278/116 199/279/116
f 181/280/117 199/281/117 197/282/117 183/283/117
f 180/284/118 200/285/118 198/159/118 182/158/118
f 184/161/119 196/162/119 199/281/119 181/280/119
f 183/283/120 197/282/120 200/285/120 180/284/120
f 175/123/121 184/163/121 181/264/121 178/258/121
f 115/9/122 124/165/122 123/286/122 114/193/122
f 114/193/123 123/286/123 83/287/123 113/191/123
f 113/191/124 83/287/124 122/288/124 112/189/124
f 112/189/125 122/288/125 80/168/125 111/2/125
f 83/289/126 127/290/126 126/291/126 122/292/126
f 123/219/127 128/218/127 127/290/127 83/289/127
f 122/292/128 126/291/128 125/174/128 80/173/128
f 209/293/129 195/177/129 208/176/129
f 200/277/130 210/276/130 207/179/130 198/178/130
f 202/294/131 195/177/131 209/293/131
f 205/181/132 195/177/132 204/295/132
f 199/279/133 203/278/133 201/275/133 197/274/133
f 209/293/134 208/176/134 207/184/134 210/296/134
f 205/181/135 204/295/135 203/297/135 206/185/135
f 204/295/136 202/294/136 201/298/136 203/297/136
f 202/294/137 209/293/137 210/296/137 201/298/137
f 204/295/138 195/177/138 202/294/138
