# Blender v2.78 (sub 0) OBJ File: 'Rook.blend'
# www.blender.org
mtllib Rook.mtl
o Black_Rook_Cylinder.008
v 1.622326 0.000001 1.622326
v 0.759815 2.600001 0.759816
v -0.000000 0.000001 2.294316
v -1.622327 0.000001 1.622326
v -0.759816 2.600001 0.759816
v 1.595502 1.426443 1.595502
v -0.000000 1.426443 2.256381
v -1.595503 1.426443 1.595502
v 1.166750 2.109664 1.166751
v -0.000000 2.109664 1.650035
v -1.166751 2.109664 1.166751
v 1.620153 0.981571 1.620153
v -0.000000 0.981571 2.291243
v -1.620154 0.981571 1.620154
v 1.608192 0.730949 1.608192
v -0.000000 0.730949 2.274328
v -1.608193 0.730949 1.608192
v 1.654817 0.345083 1.654817
v -0.000000 0.345083 2.340265
v -1.654818 0.345083 1.654817
v 1.070493 2.369327 1.070493
v -0.000000 2.369327 1.513906
v -1.070493 2.369327 1.070493
v 1.536938 1.162896 1.536939
v -0.000000 1.162896 2.173560
v -1.536939 1.162896 1.536939
v -0.000000 2.600001 1.074542
v 0.661166 7.000072 0.661166
v -0.000000 7.000072 0.935031
v -0.661167 7.000072 0.661167
v 1.071967 7.500072 1.071967
v -0.000000 7.500072 1.515991
v -1.071968 7.500072 1.071968
v 1.179164 7.500072 1.179164
v -0.000000 7.500072 1.667590
v -1.179165 7.500072 1.179165
v 1.622327 0.000001 -1.622327
v -0.000000 8.000072 1.667590
v -1.179165 8.000072 1.179165
v -0.000000 0.000001 -2.294316
v -0.000000 8.000072 1.167314
v -0.825416 8.000072 0.825415
v 2.294315 0.000001 0.000000
v 1.074541 2.600001 0.000000
v -2.294317 0.000001 0.000000
v 2.256381 1.426443 0.000000
v -2.256382 1.426443 0.000000
v 1.650034 2.109664 0.000000
v -1.650035 2.109664 0.000000
v 2.291242 0.981571 0.000000
v -2.291244 0.981571 0.000000
v 2.274327 0.730949 0.000000
v -2.274328 0.730949 0.000000
v -2.340266 0.345083 0.000000
v 2.340265 0.345083 0.000000
v 1.513906 2.369327 0.000000
v -1.513907 2.369327 0.000000
v 2.173559 1.162896 0.000000
v -2.173561 1.162896 0.000000
v -0.000000 0.000001 0.000000
v -1.074542 2.600001 0.000000
v 0.935030 7.000072 0.000000
v -0.935031 7.000072 0.000000
v 1.515991 7.500072 0.000000
v -1.515992 7.500072 0.000000
v 1.667590 7.500072 0.000000
v -1.667591 7.500072 0.000000
v 1.667590 8.000072 0.000000
v -1.667591 8.000072 0.000000
v 1.167313 8.000072 0.000000
v 0.825415 8.000072 0.825416
v -0.759816 2.600001 -0.759816
v -1.179165 8.500072 1.179165
v -0.000000 8.500072 1.667590
v 1.179164 8.000072 1.179165
v -1.622326 0.000001 -1.622326
v -0.825416 8.500072 0.825415
v -0.000000 8.500072 1.167314
v 1.179164 8.500072 1.179165
v 1.667590 8.500072 0.000000
v 0.825415 8.500072 0.825416
v 1.167314 8.500072 0.000000
v 0.759816 2.600001 -0.759816
v -1.595502 1.426443 -1.595502
v -0.000000 1.426443 -2.256381
v 1.595503 1.426443 -1.595503
v -1.166750 2.109664 -1.166751
v -0.000000 2.109664 -1.650035
v 1.166751 2.109664 -1.166751
v -1.620153 0.981571 -1.620153
v -0.000000 0.981571 -2.291243
v 1.620154 0.981571 -1.620154
v -1.608192 0.730949 -1.608192
v 0.000000 0.730949 -2.274328
v 1.608192 0.730949 -1.608193
v -1.654817 0.345083 -1.654817
v -0.000000 0.345083 -2.340265
v 1.654818 0.345083 -1.654818
v -1.070493 2.369327 -1.070493
v -0.000000 2.369327 -1.513906
v 1.070493 2.369327 -1.070494
v -1.536938 1.162896 -1.536938
v -0.000000 1.162896 -2.173560
v 1.536939 1.162896 -1.536939
v -0.000000 2.600001 -1.074542
v -0.661166 7.000072 -0.661166
v -0.000000 7.000072 -0.935031
v 0.661166 7.000072 -0.661167
v -1.071967 7.500072 -1.071967
v -0.000000 7.500072 -1.515991
v 1.071968 7.500072 -1.071968
v -1.179164 7.500072 -1.179164
v -0.000000 7.500072 -1.667590
v 1.179165 7.500072 -1.179165
v 0.000000 8.000072 -0.000000
v -0.000000 8.000072 -1.667590
v 1.179165 8.000072 -1.179165
v -0.000000 8.000072 -1.167314
v 0.825415 8.000072 -0.825415
v -1.167313 8.000072 0.000000
v -0.825415 8.000072 -0.825415
v 1.179165 8.500072 -1.179165
v -0.000000 8.500072 -1.667590
v -1.179164 8.000072 -1.179165
v 0.825415 8.500072 -0.825415
v -0.000000 8.500072 -1.167314
v -1.179164 8.500072 -1.179165
v -1.667590 8.500072 -0.000000
v -0.825415 8.500072 -0.825415
v -1.167314 8.500072 -0.000000
vt 0.2198 0.0944
vt 0.2449 0.1182
vt 0.1703 0.2300
vt 0.1413 0.2181
vt 0.1495 0.3474
vt 0.1191 0.3478
vt 0.1741 0.4628
vt 0.1452 0.4749
vt 0.2460 0.5671
vt 0.2209 0.5907
vt 0.9038 0.0156
vt 0.8746 0.2026
vt 0.8471 0.2000
vt 0.8744 0.0119
vt 0.8652 0.3832
vt 0.8384 0.3834
vt 0.8737 0.5630
vt 0.8478 0.5657
vt 0.9024 0.7490
vt 0.8758 0.7523
vt 0.0204 0.1780
vt 0.0983 0.0002
vt 0.1322 0.0113
vt 0.0506 0.1862
vt 0.0002 0.3526
vt 0.0293 0.3507
vt 0.0383 0.5161
vt 0.0641 0.5060
vt 0.1213 0.6738
vt 0.1489 0.6632
vt 0.7922 0.0002
vt 0.8305 0.0031
vt 0.8052 0.1961
vt 0.7678 0.1927
vt 0.7973 0.3835
vt 0.7596 0.3835
vt 0.8073 0.5698
vt 0.7695 0.5732
vt 0.8347 0.7612
vt 0.7954 0.7647
vt 0.2811 0.1704
vt 0.2197 0.2511
vt 0.8969 0.5606
vt 0.9260 0.7401
vt 0.8882 0.3832
vt 0.8971 0.2050
vt 0.9260 0.0242
vt 0.5285 0.8486
vt 0.3539 0.7762
vt 0.5285 0.6016
vt 0.2816 0.6016
vt 0.3539 0.4270
vt 0.5285 0.3547
vt 0.7165 0.6666
vt 0.6918 0.7459
vt 0.5837 0.6740
vt 0.6524 0.6231
vt 0.6544 0.4818
vt 0.5928 0.4291
vt 0.6993 0.3699
vt 0.7165 0.4446
vt 0.6285 0.5510
vt 0.5453 0.5480
vt 0.2242 0.4416
vt 0.2811 0.5186
vt 0.2035 0.3475
vt 0.2827 0.2657
vt 0.2816 0.1772
vt 0.7554 0.1772
vt 0.7564 0.2542
vt 0.2827 0.0887
vt 0.2859 0.0002
vt 0.7592 0.0232
vt 0.7564 0.1002
vt 0.2859 0.3542
vt 0.7592 0.3312
vt 0.5290 0.5472
vt 0.5810 0.4186
vt 0.6885 0.7625
vt 0.5702 0.6839
vt 0.6976 0.3547
vt 0.9803 0.1376
vt 0.9803 0.2750
vt 0.9265 0.2750
vt 0.9265 0.1376
vt 0.9803 0.4124
vt 0.9803 0.5497
vt 0.9265 0.5497
vt 0.9265 0.4124
vt 0.9803 0.0002
vt 0.9265 0.0002
vt 0.5622 0.7836
vt 0.6120 0.7629
vt 0.6326 0.8127
vt 0.5828 0.8333
vt 0.0528 0.6743
vt 0.0909 0.7124
vt 0.0541 0.8012
vt 0.0002 0.8012
vt 0.0528 0.9282
vt 0.0909 0.8901
vt 0.1797 0.9269
vt 0.1797 0.9807
vt 0.1797 0.8012
vt 0.1797 0.6756
vt 0.5290 0.9294
vt 0.5290 0.8333
vt 0.5828 0.9294
vt 0.6326 0.9500
vt 0.6864 0.8127
vt 0.6864 0.9500
vt 0.6326 0.9500
vt 0.6326 0.8127
vt 0.6120 0.9998
vt 0.5622 0.9792
vt 0.6120 0.9998
vt 0.5622 0.9792
vt 0.5828 0.9294
vt 0.5828 0.8333
vt 0.5290 0.9294
vt 0.5290 0.8333
vt 0.6864 0.8127
vt 0.6864 0.9500
vt 0.5622 0.7836
vt 0.6120 0.7629
vt 0.2198 0.0944
vt 0.2449 0.1182
vt 0.1703 0.2300
vt 0.1413 0.2181
vt 0.1495 0.3474
vt 0.1191 0.3478
vt 0.1741 0.4628
vt 0.1452 0.4749
vt 0.2460 0.5671
vt 0.2209 0.5907
vt 0.9038 0.0156
vt 0.8746 0.2026
vt 0.8471 0.2000
vt 0.8744 0.0119
vt 0.8652 0.3832
vt 0.8384 0.3834
vt 0.8737 0.5630
vt 0.8478 0.5657
vt 0.9024 0.7490
vt 0.8758 0.7523
vt 0.0204 0.1780
vt 0.0983 0.0002
vt 0.1322 0.0113
vt 0.0506 0.1862
vt 0.0002 0.3526
vt 0.0293 0.3507
vt 0.0383 0.5161
vt 0.0641 0.5060
vt 0.1213 0.6738
vt 0.1489 0.6632
vt 0.7922 0.0002
vt 0.8305 0.0031
vt 0.8052 0.1961
vt 0.7678 0.1927
vt 0.7973 0.3835
vt 0.7596 0.3835
vt 0.8073 0.5698
vt 0.7695 0.5732
vt 0.8347 0.7612
vt 0.7954 0.7647
vt 0.2811 0.1704
vt 0.2197 0.2511
vt 0.8969 0.5606
vt 0.9260 0.7401
vt 0.8882 0.3832
vt 0.8971 0.2050
vt 0.9260 0.0242
vt 0.5285 0.8486
vt 0.3539 0.7762
vt 0.2816 0.6016
vt 0.3539 0.4270
vt 0.5285 0.3547
vt 0.7165 0.6666
vt 0.6918 0.7459
vt 0.5837 0.6740
vt 0.6524 0.6231
vt 0.6544 0.4818
vt 0.5928 0.4291
vt 0.6993 0.3699
vt 0.7165 0.4446
vt 0.6285 0.5510
vt 0.5453 0.5480
vt 0.2242 0.4416
vt 0.2811 0.5186
vt 0.2035 0.3475
vt 0.2827 0.2657
vt 0.2816 0.1772
vt 0.7554 0.1772
vt 0.7564 0.2542
vt 0.2827 0.0887
vt 0.2859 0.0002
vt 0.7592 0.0232
vt 0.7564 0.1002
vt 0.2859 0.3542
vt 0.7592 0.3312
vt 0.5290 0.5472
vt 0.5810 0.4186
vt 0.6885 0.7625
vt 0.5702 0.6839
vt 0.6976 0.3547
vt 0.9803 0.1376
vt 0.9803 0.2750
vt 0.9265 0.2750
vt 0.9265 0.1376
vt 0.9803 0.4124
vt 0.9803 0.5497
vt 0.9265 0.5497
vt 0.9265 0.4124
vt 0.9803 0.0002
vt 0.9265 0.0002
vt 0.0528 0.6743
vt 0.0909 0.7124
vt 0.0541 0.8012
vt 0.0002 0.8012
vt 0.0528 0.9282
vt 0.0909 0.8901
vt 0.1797 0.9269
vt 0.1797 0.9807
vt 0.1797 0.6756
vt 0.5622 0.7836
vt 0.6120 0.7629
vt 0.6326 0.8127
vt 0.5828 0.8333
vt 0.5290 0.9294
vt 0.5290 0.8333
vt 0.5828 0.9294
vt 0.6326 0.9500
vt 0.6864 0.8127
vt 0.6864 0.9500
vt 0.6326 0.9500
vt 0.6326 0.8127
vt 0.6120 0.9998
vt 0.5622 0.9792
vt 0.6120 0.9998
vt 0.5622 0.9792
vt 0.5828 0.9294
vt 0.5828 0.8333
vt 0.5290 0.9294
vt 0.5290 0.8333
vt 0.6864 0.8127
vt 0.6864 0.9500
vt 0.5622 0.7836
vt 0.6120 0.7629
vn 0.8315 0.4359 0.3444
vn 0.3444 0.4359 0.8315
vn -0.3444 0.4359 0.8315
vn -0.8315 0.4359 0.3444
vn 0.9221 -0.0622 0.3819
vn 0.3819 -0.0622 0.9221
vn -0.3819 -0.0622 0.9221
vn -0.9221 -0.0622 0.3819
vn 0.8872 -0.2788 0.3675
vn 0.3675 -0.2788 0.8872
vn -0.3675 -0.2788 0.8872
vn -0.8872 -0.2788 0.3675
vn 0.7144 0.6340 0.2959
vn 0.2959 0.6340 0.7144
vn -0.2959 0.6340 0.7144
vn -0.7144 0.6340 0.2959
vn 0.9170 -0.1221 0.3798
vn 0.9126 0.1559 0.3780
vn 0.3798 -0.1221 0.9170
vn 0.3780 0.1559 0.9126
vn -0.3798 -0.1221 0.9170
vn -0.3780 0.1559 0.9126
vn -0.9170 -0.1221 0.3798
vn -0.9126 0.1559 0.3780
vn 0.4565 0.8694 0.1891
vn -0.7924 0.5143 0.3282
vn -0.3282 0.5143 0.7924
vn 0.3282 0.5143 0.7924
vn 0.7924 0.5143 0.3282
vn 0.0000 -1.0000 0.0000
vn 0.6297 -0.7317 0.2608
vn -0.6297 -0.7317 0.2608
vn -0.2608 -0.7317 0.6297
vn 0.2608 -0.7317 0.6297
vn -0.4565 0.8694 0.1891
vn -0.1891 0.8694 0.4565
vn 0.1891 0.8694 0.4565
vn -0.3825 0.0293 0.9235
vn 0.9235 0.0293 0.3825
vn -0.9235 0.0293 0.3825
vn 0.3825 0.0293 0.9235
vn -0.3827 0.0000 0.9239
vn 0.9239 -0.0000 0.3827
vn -0.9239 0.0000 0.3827
vn 0.3827 -0.0000 0.9239
vn -0.7071 0.0000 -0.7071
vn 0.0000 1.0000 0.0000
vn 0.3827 0.0000 -0.9239
vn 1.0000 0.0000 0.0000
vn 0.0000 0.0000 -1.0000
vn -0.9239 0.0000 -0.3827
vn -0.7071 0.0000 0.7071
vn -0.8315 0.4359 -0.3444
vn -0.3444 0.4359 -0.8315
vn 0.3444 0.4359 -0.8315
vn 0.8315 0.4359 -0.3444
vn -0.9221 -0.0622 -0.3819
vn -0.3819 -0.0622 -0.9221
vn 0.3819 -0.0622 -0.9221
vn 0.9221 -0.0622 -0.3819
vn -0.8872 -0.2788 -0.3675
vn -0.3675 -0.2788 -0.8872
vn 0.3675 -0.2788 -0.8872
vn 0.8872 -0.2788 -0.3675
vn -0.7144 0.6340 -0.2959
vn -0.2959 0.6340 -0.7144
vn 0.2959 0.6340 -0.7144
vn 0.7144 0.6340 -0.2959
vn -0.9170 -0.1221 -0.3798
vn -0.9126 0.1559 -0.3780
vn -0.3798 -0.1221 -0.9170
vn -0.3780 0.1559 -0.9126
vn 0.3798 -0.1221 -0.9170
vn 0.3780 0.1559 -0.9126
vn 0.9170 -0.1221 -0.3798
vn 0.9126 0.1559 -0.3780
vn -0.4565 0.8694 -0.1891
vn 0.7924 0.5143 -0.3282
vn 0.3282 0.5143 -0.7924
vn -0.3282 0.5143 -0.7924
vn -0.7924 0.5143 -0.3282
vn -0.6297 -0.7317 -0.2608
vn 0.6297 -0.7317 -0.2608
vn 0.2608 -0.7317 -0.6297
vn -0.2608 -0.7317 -0.6297
vn 0.4565 0.8694 -0.1891
vn 0.1891 0.8694 -0.4565
vn -0.1891 0.8694 -0.4565
vn 0.3825 0.0293 -0.9235
vn -0.9235 0.0293 -0.3825
vn 0.9235 0.0293 -0.3825
vn -0.3825 0.0293 -0.9235
vn 0.9239 0.0000 -0.3827
vn -0.3827 -0.0000 -0.9239
vn 0.7071 0.0000 0.7071
vn -1.0000 0.0000 0.0000
vn -0.0000 0.0000 1.0000
vn 0.7071 0.0000 -0.7071
usemtl ChestBoard.004
s off
f 48/1/1 56/2/1 21/3/1 9/4/1
f 9/4/2 21/3/2 22/5/2 10/6/2
f 10/6/3 22/5/3 23/7/3 11/8/3
f 11/8/4 23/7/4 57/9/4 49/10/4
f 50/11/5 12/12/5 15/13/5 52/14/5
f 12/12/6 13/15/6 16/16/6 15/13/6
f 13/15/7 14/17/7 17/18/7 16/16/7
f 14/17/8 51/19/8 53/20/8 17/18/8
f 24/21/9 58/22/9 46/23/9 6/24/9
f 25/25/10 24/21/10 6/24/10 7/26/10
f 26/27/11 25/25/11 7/26/11 8/28/11
f 59/29/12 26/27/12 8/28/12 47/30/12
f 46/23/13 48/1/13 9/4/13 6/24/13
f 6/24/14 9/4/14 10/6/14 7/26/14
f 7/26/15 10/6/15 11/8/15 8/28/15
f 8/28/16 11/8/16 49/10/16 47/30/16
f 43/31/17 55/32/17 18/33/17 1/34/17
f 55/32/18 52/14/18 15/13/18 18/33/18
f 1/34/19 18/33/19 19/35/19 3/36/19
f 18/33/20 15/13/20 16/16/20 19/35/20
f 3/36/21 19/35/21 20/37/21 4/38/21
f 19/35/22 16/16/22 17/18/22 20/37/22
f 4/38/23 20/37/23 54/39/23 45/40/23
f 20/37/24 17/18/24 53/20/24 54/39/24
f 56/2/25 44/41/25 2/42/25 21/3/25
f 51/19/26 14/17/26 26/43/26 59/44/26
f 14/17/27 13/15/27 25/45/27 26/43/27
f 13/15/28 12/12/28 24/46/28 25/45/28
f 12/12/29 50/11/29 58/47/29 24/46/29
f 43/48/30 1/49/30 60/50/30
f 3/51/30 4/52/30 60/50/30
f 4/52/30 45/53/30 60/50/30
f 1/49/30 3/51/30 60/50/30
f 62/54/31 64/55/31 31/56/31 28/57/31
f 30/58/32 33/59/32 65/60/32 63/61/32
f 29/62/33 32/63/33 33/59/33 30/58/33
f 28/57/34 31/56/34 32/63/34 29/62/34
f 57/9/35 23/7/35 5/64/35 61/65/35
f 23/7/36 22/5/36 27/66/36 5/64/36
f 22/5/37 21/3/37 2/42/37 27/66/37
f 5/67/38 27/68/38 29/69/38 30/70/38
f 2/71/39 44/72/39 62/73/39 28/74/39
f 61/75/40 5/67/40 30/70/40 63/76/40
f 27/68/41 2/71/41 28/74/41 29/69/41
f 33/59/30 32/63/30 35/77/30 36/78/30
f 31/56/30 64/55/30 66/79/30 34/80/30
f 65/60/30 33/59/30 36/78/30 67/81/30
f 32/63/30 31/56/30 34/80/30 35/77/30
f 36/82/42 35/83/42 38/84/42 39/85/42
f 34/86/43 66/87/43 68/88/43 75/89/43
f 67/90/44 36/82/44 39/85/44 69/91/44
f 35/83/45 34/86/45 75/89/45 38/84/45
f 42/92/46 39/93/46 73/94/46 77/95/46
f 75/96/47 71/97/47 41/98/47 38/99/47
f 39/100/47 42/101/47 120/102/47 69/103/47
f 42/101/47 41/98/47 115/104/47
f 41/98/47 71/97/47 115/104/47
f 120/102/47 42/101/47 115/104/47
f 71/97/47 70/105/47 115/104/47
f 41/106/48 42/107/48 77/95/48 78/108/48
f 73/94/47 74/109/47 78/108/47 77/95/47
f 75/110/43 68/111/43 80/112/43 79/113/43
f 38/114/49 41/115/49 78/108/49 74/109/49
f 68/116/50 70/117/50 82/118/50 80/112/50
f 79/113/47 80/112/47 82/118/47 81/119/47
f 70/120/51 71/121/51 81/119/51 82/118/51
f 39/122/42 38/123/42 74/109/42 73/94/42
f 71/124/52 75/125/52 79/113/52 81/119/52
f 49/126/53 57/127/53 99/128/53 87/129/53
f 87/129/54 99/128/54 100/130/54 88/131/54
f 88/131/55 100/130/55 101/132/55 89/133/55
f 89/133/56 101/132/56 56/134/56 48/135/56
f 51/136/57 90/137/57 93/138/57 53/139/57
f 90/137/58 91/140/58 94/141/58 93/138/58
f 91/140/59 92/142/59 95/143/59 94/141/59
f 92/142/60 50/144/60 52/145/60 95/143/60
f 102/146/61 59/147/61 47/148/61 84/149/61
f 103/150/62 102/146/62 84/149/62 85/151/62
f 104/152/63 103/150/63 85/151/63 86/153/63
f 58/154/64 104/152/64 86/153/64 46/155/64
f 47/148/65 49/126/65 87/129/65 84/149/65
f 84/149/66 87/129/66 88/131/66 85/151/66
f 85/151/67 88/131/67 89/133/67 86/153/67
f 86/153/68 89/133/68 48/135/68 46/155/68
f 45/156/69 54/157/69 96/158/69 76/159/69
f 54/157/70 53/139/70 93/138/70 96/158/70
f 76/159/71 96/158/71 97/160/71 40/161/71
f 96/158/72 93/138/72 94/141/72 97/160/72
f 40/161/73 97/160/73 98/162/73 37/163/73
f 97/160/74 94/141/74 95/143/74 98/162/74
f 37/163/75 98/162/75 55/164/75 43/165/75
f 98/162/76 95/143/76 52/145/76 55/164/76
f 57/127/77 61/166/77 72/167/77 99/128/77
f 50/144/78 92/142/78 104/168/78 58/169/78
f 92/142/79 91/140/79 103/170/79 104/168/79
f 91/140/80 90/137/80 102/171/80 103/170/80
f 90/137/81 51/136/81 59/172/81 102/171/81
f 45/173/30 76/174/30 60/50/30
f 40/175/30 37/176/30 60/50/30
f 37/176/30 43/177/30 60/50/30
f 76/174/30 40/175/30 60/50/30
f 63/178/82 65/179/82 109/180/82 106/181/82
f 108/182/83 111/183/83 64/184/83 62/185/83
f 107/186/84 110/187/84 111/183/84 108/182/84
f 106/181/85 109/180/85 110/187/85 107/186/85
f 56/134/86 101/132/86 83/188/86 44/189/86
f 101/132/87 100/130/87 105/190/87 83/188/87
f 100/130/88 99/128/88 72/167/88 105/190/88
f 83/191/89 105/192/89 107/193/89 108/194/89
f 72/195/90 61/196/90 63/197/90 106/198/90
f 44/199/91 83/191/91 108/194/91 62/200/91
f 105/192/92 72/195/92 106/198/92 107/193/92
f 111/183/30 110/187/30 113/201/30 114/202/30
f 109/180/30 65/179/30 67/203/30 112/204/30
f 64/184/30 111/183/30 114/202/30 66/205/30
f 110/187/30 109/180/30 112/204/30 113/201/30
f 114/206/48 113/207/48 116/208/48 117/209/48
f 112/210/51 67/211/51 69/212/51 124/213/51
f 66/214/93 114/206/93 117/209/93 68/215/93
f 113/207/94 112/210/94 124/213/94 116/208/94
f 124/216/47 121/217/47 118/218/47 116/219/47
f 117/220/47 119/221/47 70/222/47 68/223/47
f 119/221/47 118/218/47 115/104/47
f 118/218/47 121/217/47 115/104/47
f 70/222/47 119/221/47 115/104/47
f 121/217/47 120/224/47 115/104/47
f 119/225/95 117/226/95 122/227/95 125/228/95
f 118/229/42 119/230/42 125/228/42 126/231/42
f 122/227/47 123/232/47 126/231/47 125/228/47
f 124/233/51 69/234/51 128/235/51 127/236/51
f 116/237/96 118/238/96 126/231/96 123/232/96
f 69/239/97 120/240/97 130/241/97 128/235/97
f 127/236/47 128/235/47 130/241/47 129/242/47
f 120/243/43 121/244/43 129/242/43 130/241/43
f 117/245/48 116/246/48 123/232/48 122/227/48
f 121/247/98 124/248/98 127/236/98 129/242/98
